<?xml version="1.0" standalone="no"?>
<!DOCTYPE svg PUBLIC "-//W3C//DTD SVG 20010904//EN"
 "http://www.w3.org/TR/2001/REC-SVG-20010904/DTD/svg10.dtd">
<svg version="1.0" xmlns="http://www.w3.org/2000/svg"
 width="512.000000pt" height="512.000000pt" viewBox="0 0 512.000000 512.000000"
 preserveAspectRatio="xMidYMid meet">

<g transform="translate(0.000000,512.000000) scale(0.100000,-0.100000)"
fill="#fa923f" stroke="none">
<path d="M4774 5004 c-100 -36 -167 -136 -167 -245 2 -189 197 -308 368 -224
191 93 191 359 0 457 -51 27 -147 33 -201 12z"/>
<path d="M1465 4841 c-162 -75 -149 -315 21 -371 163 -54 317 118 245 275 -46
100 -165 143 -266 96z"/>
<path d="M425 4445 c-122 -26 -236 -99 -312 -200 -104 -138 -136 -293 -93
-461 68 -267 336 -440 607 -394 284 47 486 323 444 605 -46 309 -344 516 -646
450z"/>
<path d="M4172 4449 c-320 -63 -442 -460 -211 -691 74 -74 162 -112 271 -116
135 -6 254 45 332 142 200 247 69 607 -244 666 -60 11 -87 11 -148 -1z"/>
<path d="M2175 4085 c-804 -118 -1450 -695 -1659 -1481 -40 -148 -56 -263 -63
-434 -20 -552 187 -1080 582 -1476 777 -779 2012 -792 2804 -29 307 296 506
671 588 1110 21 114 28 410 13 547 -14 129 -65 345 -109 463 -104 281 -256
519 -467 729 -311 312 -707 509 -1144 571 -129 18 -420 18 -545 0z m523 -360
c352 -56 662 -214 912 -465 232 -231 378 -504 451 -837 30 -140 37 -410 15
-553 -59 -371 -203 -658 -459 -919 -440 -447 -1090 -604 -1685 -405 -744 249
-1209 991 -1107 1768 95 722 646 1289 1370 1410 114 19 383 19 503 1z"/>
<path d="M1726 2940 c-176 -28 -311 -88 -412 -183 -154 -143 -221 -304 -231
-554 -12 -270 52 -473 195 -625 129 -136 269 -197 500 -217 301 -27 524 39
687 203 128 129 185 264 205 487 11 127 1 272 -25 374 -47 185 -182 355 -345
433 -47 23 -123 50 -170 62 -98 24 -312 34 -404 20z m286 -382 c54 -23 122
-92 145 -146 59 -138 56 -394 -7 -540 -26 -61 -70 -104 -135 -134 -71 -33
-198 -32 -272 1 -127 57 -184 181 -184 403 0 160 20 247 73 326 75 110 242
150 380 90z"/>
<path d="M3037 2409 c-150 -22 -241 -107 -277 -257 -7 -29 -11 -55 -9 -57 8
-7 269 -26 279 -20 5 3 10 15 10 25 0 33 31 86 60 104 55 32 143 13 167 -36
20 -41 22 -56 12 -92 -15 -53 -49 -88 -230 -232 -217 -172 -251 -215 -300
-376 l-17 -58 384 0 384 0 0 90 0 90 -176 0 -176 0 33 41 c17 22 75 73 128
114 178 135 245 225 257 342 13 121 -49 234 -159 287 -78 38 -242 54 -370 35z"/>
</g>
</svg>
